<?xml version="1.0" encoding="UTF-8"?>
<svg id="Layer_1" xmlns="http://www.w3.org/2000/svg" version="1.1" viewBox="0 0 840.68 39.78">
  <!-- Generator: Adobe Illustrator 30.0.0, SVG Export Plug-In . SVG Version: 2.1.1 Build 123)  -->
  <defs>
    <style>
      .st0 {
        fill: #fff;
      }
    </style>
  </defs>
  <path class="st0" d="M77.15,17.39c0,.38-.31.69-.69.69h-19.46l-1.6,1.2c-.11.08-.26-.03-.21-.16l1.14-2.93V.64h-5.08v38.45h5.08v-17.83c0-.38.31-.69.69-.69h19.44c.38,0,.69.31.69.69v17.83h5.08V.64h-5.08v16.75h0Z"/>
  <path class="st0" d="M105.69,39.09h24.38v-2.34h-18.61c-.38,0-.69-.31-.69-.69v-14.89c0-.38.31-.69.69-.69h16.22v-2.34h-15.89l-1.53,1.14c-.11.08-.26-.03-.21-.16l.73-1.87V3.68c0-.38.31-.69.69-.69h18.61V.64h-24.38v38.45h0Z"/>
  <path class="st0" d="M184.75.64h-10.94v38.45h5.08v-16.95h5.86c8.45,0,16.42-2.59,16.42-10.75s-7.96-10.75-16.42-10.75h0ZM184.41,19.94h-4.53l-1.43,1.07c-.11.08-.26-.03-.21-.16l.65-1.67V3.52c0-.38.31-.69.69-.69h4.83c6.79,0,11.04,2.15,11.04,8.55s-4.25,8.55-11.04,8.55h0Z"/>
  <path class="st0" d="M269.43,37.67c-.11.08-.26-.03-.21-.16l.8-2.04V.64h-5.08v38.45h24.38v-2.34h-18.66l-1.23.92Z"/>
  <path class="st0" d="M370.38,37.87c-7.43,0-14.9-5.18-14.9-17.98s7.48-17.98,14.9-17.98c5.28,0,11.14,1.08,14.27,9.09h.49V3.77c-3.13-2.3-8.75-3.76-14.75-3.76-11.29,0-20.62,7.72-20.62,19.89s9.33,19.88,20.62,19.88c5.33,0,10.65-1.07,14.9-3.81v-7.23h-.49c-3.13,8.01-9.09,9.14-14.41,9.14h0Z"/>
  <path class="st0" d="M491.46,37.87c-7.43,0-14.9-5.18-14.9-17.98s7.48-17.98,14.9-17.98c5.28,0,11.14,1.08,14.27,9.09h.49V3.77c-3.13-2.3-8.75-3.76-14.76-3.76-11.29,0-20.62,7.72-20.62,19.89s9.33,19.88,20.62,19.88c5.33,0,10.65-1.07,14.9-3.81v-7.23h-.49c-3.13,8.01-9.09,9.14-14.41,9.14h0Z"/>
  <path class="st0" d="M544.63,0c-11.29,0-20.81,7.72-20.81,19.89s9.53,19.88,20.81,19.88,20.81-7.72,20.81-19.88-9.53-19.89-20.81-19.89ZM544.63,37.87c-7.43,0-15.1-5.18-15.1-17.98s7.67-17.98,15.1-17.98,15.1,5.18,15.1,17.98-7.67,17.98-15.1,17.98Z"/>
  <path class="st0" d="M616.31.64l-11.48,32.64-12.21-32.64h-6.11l-1.66,38.45h2.64l1.37-30.82c.03-.75,1.07-.91,1.33-.21l11.77,31.03h3.32l10.83-30.72c.25-.71,1.31-.56,1.34.2l1.22,30.52h5.18l-1.66-38.45h-5.88Z"/>
  <path class="st0" d="M766.32,28.74c0,.66-.85.94-1.24.41l-20.99-28.51h-5.91v38.45h2.69V6.64c0-.66.85-.94,1.24-.41l24.16,32.85h2.74V.63h-2.69v28.1h0Z"/>
  <path class="st0" d="M805.9,19.27c-.27.44-.91.44-1.17,0l-11.38-18.63h-5.52l13.48,21.99v16.47h5.08v-16.42l13.63-22.04h-2.79l-11.33,18.63Z"/>
  <path class="st0" d="M226.87.64l-15.1,38.45h2.64l5.06-12.81c.1-.26.36-.43.64-.43h14.7c.28,0,.54.17.64.44l5,12.8h5.33L230.68.64h-3.81ZM234.67,25l-2.57-1.92c-.48-.36-1.05-.55-1.65-.55h-8.49c-.49,0-.82-.49-.64-.94l5.53-14c.23-.58,1.05-.58,1.28,0l6.74,17.25c.05.13-.1.24-.21.16h.01Z"/>
  <path class="st0" d="M316.97.64l-15.1,38.45h2.64l5.06-12.81c.1-.26.36-.43.64-.43h14.7c.28,0,.54.17.64.44l5,12.8h5.33L320.78.64h-3.81ZM324.78,25l-2.57-1.92c-.48-.36-1.05-.55-1.65-.55h-8.49c-.49,0-.82-.49-.64-.94l5.53-14c.23-.58,1.05-.58,1.28,0l6.74,17.25c.05.13-.1.24-.21.16h.01Z"/>
  <path class="st0" d="M700.11.64l-15.1,38.45h2.64l5.06-12.81c.1-.26.36-.43.64-.43h14.7c.28,0,.54.17.64.44l5,12.8h5.33l-15.1-38.45h-3.81ZM707.91,25l-2.57-1.92c-.48-.36-1.05-.55-1.65-.55h-8.49c-.49,0-.82-.49-.64-.94l5.53-14c.23-.58,1.05-.58,1.28,0l6.74,17.25c.05.13-.1.24-.21.16h.01Z"/>
  <path class="st0" d="M834.27.66c-3.53,0-6.4,2.87-6.4,6.41s2.87,6.4,6.4,6.4,6.41-2.87,6.41-6.4-2.87-6.41-6.41-6.41ZM834.27,12.62c-3.06,0-5.56-2.49-5.56-5.56s2.49-5.56,5.56-5.56,5.56,2.49,5.56,5.56-2.49,5.56-5.56,5.56Z"/>
  <path class="st0" d="M835.45,7.15c.47-.07.83-.25,1.08-.56.26-.31.38-.69.38-1.15,0-.36-.07-.65-.19-.88-.13-.23-.3-.41-.52-.55-.22-.14-.48-.24-.77-.3-.3-.06-.6-.09-.92-.09h-2.23v6.53h.93v-2.89h1.12l1.58,2.89h1.12l-1.79-2.98.21-.03h0ZM834.3,6.52h-1.09v-2.13h1.19c.16,0,.32,0,.49.03.18.02.34.06.49.13.16.07.29.18.39.33.1.15.15.34.15.56,0,.25-.05.46-.16.61-.1.15-.24.26-.41.33-.16.07-.33.11-.52.13-.18.02-.36.02-.54.02h0Z"/>
  <path class="st0" d="M406.05,39.09h24.38v-2.34h-18.61c-.38,0-.69-.31-.69-.69v-14.89c0-.38.31-.69.69-.69h16.22v-2.34h-15.89l-1.53,1.14c-.11.08-.26-.03-.21-.16l.73-1.87V3.68c0-.38.31-.69.69-.69h18.61V.64h-24.38v38.45h0Z"/>
  <path class="st0" d="M657.99.64h-10.94v38.45h5.08v-16.95h5.86c8.45,0,16.42-2.59,16.42-10.75s-7.96-10.75-16.42-10.75ZM657.65,19.94h-4.53l-1.43,1.07c-.11.08-.26-.03-.21-.16l.65-1.67V3.52c0-.38.31-.69.69-.69h4.83c6.79,0,11.04,2.15,11.04,8.55s-4.25,8.55-11.04,8.55h0Z"/>
  <path class="st0" d="M0,.64v2.35h13.68v36.11h5.08V4.31l-.98-1.31-.31-.41c-.08-.11.03-.26.16-.21l1.59.62h13.22V.65H0Z"/>
</svg>